<mxfile host="app.diagrams.net" agent="Mozilla/5.0 (Windows NT 10.0; Win64; x64) AppleWebKit/537.36 (KHTML, like Gecko) Chrome/130.0.0.0 Safari/537.36" border="50" scale="3" compressed="false" locked="false" version="24.8.3">
  <diagram name="Blank" id="YmL12bMKpDGza6XwsDPr">
    <mxGraphModel dx="890" dy="565" grid="0" gridSize="10" guides="1" tooltips="1" connect="1" arrows="1" fold="1" page="0" pageScale="1" pageWidth="827" pageHeight="1169" background="none" math="1" shadow="0">
      <root>
        <mxCell id="X5NqExCQtvZxIxQ7pmgY-0" />
        <mxCell id="1" parent="X5NqExCQtvZxIxQ7pmgY-0" />
        <mxCell id="lHAnoZNAdurgj7qqyVGZ-81" value="Horizontal Flow Layout" style="swimlane;html=1;startSize=20;horizontal=0;childLayout=flowLayout;flowOrientation=west;resizable=0;interRankCellSpacing=50;containerType=tree;fontSize=12;" parent="1" vertex="1">
          <mxGeometry x="455" y="299" width="310" height="433" as="geometry" />
        </mxCell>
        <mxCell id="lHAnoZNAdurgj7qqyVGZ-82" value="Django" style="whiteSpace=wrap;html=1;" parent="lHAnoZNAdurgj7qqyVGZ-81" vertex="1">
          <mxGeometry x="40" y="232.5" width="100" height="40" as="geometry" />
        </mxCell>
        <mxCell id="lHAnoZNAdurgj7qqyVGZ-83" value="Task 01 - Poll Voting Application" style="whiteSpace=wrap;html=1;" parent="lHAnoZNAdurgj7qqyVGZ-81" vertex="1">
          <mxGeometry x="190" y="20" width="100" height="73" as="geometry" />
        </mxCell>
        <mxCell id="lHAnoZNAdurgj7qqyVGZ-84" value="" style="html=1;rounded=1;curved=0;sourcePerimeterSpacing=0;targetPerimeterSpacing=0;startSize=6;endSize=6;noEdgeStyle=1;orthogonal=1;" parent="lHAnoZNAdurgj7qqyVGZ-81" source="lHAnoZNAdurgj7qqyVGZ-82" target="lHAnoZNAdurgj7qqyVGZ-83" edge="1">
          <mxGeometry relative="1" as="geometry">
            <Array as="points">
              <mxPoint x="152" y="236.5" />
              <mxPoint x="178" y="56.5" />
            </Array>
          </mxGeometry>
        </mxCell>
        <mxCell id="lHAnoZNAdurgj7qqyVGZ-85" value="Task 02 - Django Starter Template App" style="whiteSpace=wrap;html=1;" parent="lHAnoZNAdurgj7qqyVGZ-81" vertex="1">
          <mxGeometry x="190" y="123" width="100" height="79.5" as="geometry" />
        </mxCell>
        <mxCell id="lHAnoZNAdurgj7qqyVGZ-86" value="" style="html=1;rounded=1;curved=0;sourcePerimeterSpacing=0;targetPerimeterSpacing=0;startSize=6;endSize=6;noEdgeStyle=1;orthogonal=1;" parent="lHAnoZNAdurgj7qqyVGZ-81" source="lHAnoZNAdurgj7qqyVGZ-82" target="lHAnoZNAdurgj7qqyVGZ-85" edge="1">
          <mxGeometry relative="1" as="geometry">
            <Array as="points">
              <mxPoint x="154" y="244.5" />
              <mxPoint x="178" y="162.75" />
            </Array>
          </mxGeometry>
        </mxCell>
        <mxCell id="lHAnoZNAdurgj7qqyVGZ-90" value="" style="edgeStyle=orthogonalEdgeStyle;rounded=0;orthogonalLoop=1;jettySize=auto;html=1;noEdgeStyle=1;orthogonal=1;" parent="lHAnoZNAdurgj7qqyVGZ-81" source="lHAnoZNAdurgj7qqyVGZ-82" target="lHAnoZNAdurgj7qqyVGZ-91" edge="1">
          <mxGeometry relative="1" as="geometry">
            <Array as="points">
              <mxPoint x="156" y="252.5" />
              <mxPoint x="178" y="252.5" />
            </Array>
          </mxGeometry>
        </mxCell>
        <mxCell id="lHAnoZNAdurgj7qqyVGZ-91" value="Task 03 - CRM" style="whiteSpace=wrap;html=1;" parent="lHAnoZNAdurgj7qqyVGZ-81" vertex="1">
          <mxGeometry x="190" y="232.5" width="100" height="40" as="geometry" />
        </mxCell>
        <mxCell id="lHAnoZNAdurgj7qqyVGZ-92" value="" style="edgeStyle=orthogonalEdgeStyle;rounded=0;orthogonalLoop=1;jettySize=auto;html=1;noEdgeStyle=1;orthogonal=1;" parent="lHAnoZNAdurgj7qqyVGZ-81" source="lHAnoZNAdurgj7qqyVGZ-82" target="lHAnoZNAdurgj7qqyVGZ-93" edge="1">
          <mxGeometry relative="1" as="geometry">
            <Array as="points">
              <mxPoint x="154" y="260.5" />
              <mxPoint x="178" y="322.5" />
            </Array>
          </mxGeometry>
        </mxCell>
        <mxCell id="lHAnoZNAdurgj7qqyVGZ-93" value="Task 04 SaaS" style="whiteSpace=wrap;html=1;" parent="lHAnoZNAdurgj7qqyVGZ-81" vertex="1">
          <mxGeometry x="190" y="302.5" width="100" height="40" as="geometry" />
        </mxCell>
        <mxCell id="lHAnoZNAdurgj7qqyVGZ-94" value="" style="edgeStyle=orthogonalEdgeStyle;rounded=0;orthogonalLoop=1;jettySize=auto;html=1;noEdgeStyle=1;orthogonal=1;" parent="lHAnoZNAdurgj7qqyVGZ-81" source="lHAnoZNAdurgj7qqyVGZ-82" target="lHAnoZNAdurgj7qqyVGZ-95" edge="1">
          <mxGeometry relative="1" as="geometry">
            <Array as="points">
              <mxPoint x="152" y="268.5" />
              <mxPoint x="178" y="392.5" />
            </Array>
          </mxGeometry>
        </mxCell>
        <mxCell id="lHAnoZNAdurgj7qqyVGZ-95" value="Task 02" style="whiteSpace=wrap;html=1;" parent="lHAnoZNAdurgj7qqyVGZ-81" vertex="1">
          <mxGeometry x="190" y="372.5" width="100" height="40" as="geometry" />
        </mxCell>
      </root>
    </mxGraphModel>
  </diagram>
</mxfile>
